<?xml version="1.0" standalone="no"?>
<!DOCTYPE svg PUBLIC "-//W3C//DTD SVG 20010904//EN"
 "http://www.w3.org/TR/2001/REC-SVG-20010904/DTD/svg10.dtd">
<svg version="1.0" xmlns="http://www.w3.org/2000/svg"
 width="826.000000pt" height="622.000000pt" viewBox="0 0 826.000000 622.000000"
 preserveAspectRatio="xMidYMid meet">

<g transform="translate(0.000000,622.000000) scale(0.100000,-0.100000)"
fill="#000000" stroke="none">
<path d="M0 4695 c0 -839 4 -1525 8 -1525 4 0 26 18 47 41 22 23 70 66 107 95
37 30 79 65 92 77 13 12 42 36 64 52 22 17 38 33 35 38 -2 4 4 7 13 7 10 0 15
3 11 6 -3 3 45 47 106 97 62 49 130 106 153 126 98 87 207 172 218 168 25 -8
16 -36 -17 -52 -19 -9 -67 -47 -108 -85 -41 -39 -75 -70 -77 -70 -5 0 -176
-144 -227 -191 -22 -20 -101 -87 -175 -149 -74 -62 -161 -138 -193 -169 l-57
-55 0 -698 0 -698 50 0 c38 0 50 -4 50 -15 0 -17 -7 -20 -62 -30 l-38 -6 0
-54 0 -54 38 6 c20 3 49 10 64 16 30 13 38 37 12 37 -23 0 0 27 29 36 12 3 28
12 36 18 7 6 34 18 60 26 51 17 63 40 35 71 -14 16 -15 23 -6 45 19 41 15 47
-28 41 -25 -3 -53 -17 -74 -35 -37 -32 -99 -57 -116 -47 -6 4 -4 14 5 29 8 12
12 26 8 30 -13 13 21 26 70 26 42 0 57 6 108 45 33 25 64 45 70 45 5 0 20 11
32 24 l23 24 2 -25 c1 -14 -3 -32 -9 -40 -19 -22 -5 -24 49 -5 72 24 104 55
100 95 -3 31 -5 32 -44 30 -34 -3 -43 1 -54 22 -11 20 -11 27 0 40 20 24 64
15 68 -13 3 -20 8 -22 32 -17 25 5 28 4 23 -13 -2 -11 3 -31 12 -45 21 -32 8
-55 -53 -93 -25 -16 -51 -39 -60 -51 -13 -21 -13 -25 3 -43 23 -25 45 -25 89
1 25 14 48 19 83 17 44 -3 48 -5 48 -28 1 -22 4 -25 35 -22 97 7 179 41 204
84 19 31 51 52 66 43 5 -3 25 -6 45 -7 19 -1 35 -5 35 -10 0 -13 34 -9 57 7
16 12 22 12 26 2 4 -9 6 -9 6 1 1 16 26 43 33 36 3 -2 11 2 18 11 11 13 10 15
-6 9 -15 -5 -16 -4 -4 4 8 6 17 9 21 6 4 -2 19 0 33 6 16 6 27 6 31 0 4 -6 17
-10 31 -10 13 0 24 -6 24 -12 0 -7 5 -5 11 4 15 27 48 41 63 29 14 -12 57 -8
100 8 16 7 31 9 34 6 3 -2 10 -1 17 5 12 10 102 29 178 37 45 5 61 17 35 26
-7 2 -1 2 13 0 20 -3 30 3 44 23 15 23 22 26 56 21 29 -4 44 0 60 14 24 20 46
24 68 10 8 -5 23 -4 38 4 16 9 35 10 54 5 16 -5 43 -5 61 1 18 5 48 9 66 9 33
0 62 18 62 39 0 6 -4 11 -10 11 -5 0 -10 -7 -10 -16 0 -23 -24 -11 -28 14 -3
21 -17 28 -72 34 -35 4 -28 22 12 30 17 3 38 14 44 23 9 11 19 15 34 10 13 -4
28 -1 38 8 9 9 20 16 25 16 4 0 19 4 33 7 28 7 44 -3 48 -32 2 -11 11 -20 20
-22 22 -5 47 16 44 37 -3 13 6 16 52 14 l55 -2 -28 23 c-24 20 -27 26 -18 49
6 15 15 27 20 27 5 0 16 6 24 14 12 13 17 13 36 0 30 -21 26 -41 -11 -60 -44
-22 -44 -22 -23 -38 24 -17 62 1 90 44 22 32 34 37 53 18 21 -21 53 -20 59 2
6 24 7 24 40 3 25 -17 25 -16 19 4 -5 17 -1 23 24 32 18 6 28 6 25 1 -4 -6 -1
-10 4 -10 6 0 11 3 11 8 0 4 10 12 23 17 12 6 26 20 32 33 11 25 41 31 31 6
-3 -9 -2 -12 5 -8 6 3 8 17 5 30 -4 13 -1 32 5 43 17 26 4 51 -25 51 -31 0
-76 17 -76 28 0 5 17 5 38 -1 22 -6 46 -8 55 -4 37 14 27 127 -13 127 -9 0
-25 -9 -36 -21 -40 -44 -145 -121 -158 -116 -8 3 -16 18 -18 34 -3 24 -6 20
-25 -32 -32 -85 -38 -92 -58 -75 -11 9 -13 16 -5 24 22 22 10 43 -35 60 -25
10 -45 21 -45 25 0 4 24 6 53 3 60 -5 69 2 84 63 l10 41 -61 19 -61 18 54 8
c30 4 60 5 68 2 9 -4 13 4 14 23 l1 29 8 -25 c7 -23 8 -23 9 8 l1 34 -36 -21
c-61 -36 -54 -15 11 36 30 23 47 47 65 96 16 42 28 61 33 54 5 -7 7 -3 4 11
-3 13 -3 21 0 18 4 -3 14 11 24 31 17 35 18 36 12 8 -9 -49 19 -13 34 43 18
71 16 81 -13 47 -18 -21 -22 -23 -15 -8 6 12 21 29 33 37 38 27 11 29 -44 4
-122 -57 -197 -144 -198 -231 0 -24 -4 -36 -10 -32 -6 4 -18 1 -27 -6 -14 -12
-15 -9 -8 31 4 25 12 54 17 65 5 11 -15 -5 -43 -35 -29 -30 -43 -41 -31 -25
11 17 46 55 77 85 32 30 80 82 107 114 l50 59 -29 13 c-27 12 -26 13 21 9 50
-4 83 7 139 49 15 11 27 27 26 36 -5 33 14 177 28 222 8 25 13 57 11 70 -3 22
-7 20 -53 -27 -105 -107 -127 -138 -162 -228 -15 -40 -21 -50 -17 -27 4 19 19
64 35 99 16 35 29 66 29 68 0 3 -13 2 -30 -2 -41 -9 -38 1 5 19 19 8 35 21 35
29 0 8 8 14 17 13 11 -1 36 27 69 78 45 68 51 83 43 105 -9 25 -9 25 7 6 15
-20 16 -20 39 9 13 17 27 48 31 70 3 21 13 53 21 70 11 24 13 26 8 6 -14 -56
-17 -100 -8 -100 5 0 20 21 32 47 12 27 33 61 45 76 l23 28 -5 -32 c-3 -22 -1
-30 7 -25 16 10 14 -10 -4 -44 -19 -37 -35 -38 -36 -2 -1 25 -2 23 -20 -16
-11 -24 -26 -73 -33 -110 -8 -37 -20 -85 -29 -107 -8 -22 -16 -47 -16 -55 -1
-8 -3 -35 -6 -60 -3 -39 -3 -40 4 -10 4 19 12 44 18 54 9 17 12 13 17 -25 15
-96 19 -109 27 -109 5 0 15 -13 24 -30 19 -37 65 -80 85 -80 11 1 10 4 -5 16
-20 16 -20 16 2 10 24 -8 88 26 75 39 -4 5 -1 5 6 0 8 -4 12 -18 9 -32 -3 -17
-1 -21 6 -14 17 17 27 13 38 -15 14 -39 3 -60 -51 -93 -28 -17 -50 -36 -50
-42 0 -7 22 -33 48 -58 27 -25 53 -58 60 -73 6 -14 20 -29 31 -33 12 -3 21
-10 21 -15 0 -4 15 -26 33 -47 17 -22 43 -63 56 -91 29 -62 50 -71 118 -48 25
9 49 16 51 16 2 0 1 -46 -3 -102 -4 -64 -3 -113 4 -130 8 -22 8 -26 -4 -22
-13 5 -13 0 -1 -37 26 -84 36 -99 65 -93 25 6 25 5 -4 -14 -57 -37 -108 -98
-101 -120 5 -16 0 -25 -19 -38 -19 -12 -25 -24 -23 -43 2 -19 -2 -26 -14 -26
-17 0 -58 -45 -58 -64 0 -6 -21 -51 -46 -99 -82 -155 -120 -274 -127 -404 -1
-10 -5 -18 -9 -18 -4 0 -8 23 -8 51 0 60 -13 57 -40 -7 -11 -24 -22 -44 -25
-44 -37 0 -137 99 -155 153 -10 32 -10 45 4 80 9 23 25 48 37 55 38 24 212 83
220 75 4 -4 3 -35 -2 -67 -12 -73 -6 -94 11 -41 7 22 30 74 51 115 33 63 49
120 36 120 -21 0 -167 -59 -226 -91 -137 -76 -156 -96 -176 -193 -11 -49 -10
-68 0 -99 16 -48 70 -136 118 -194 20 -25 37 -48 37 -52 0 -8 -90 -31 -121
-31 -25 0 -24 26 1 40 11 6 18 15 15 21 -4 6 -13 5 -25 -1 -10 -5 -28 -10 -40
-10 -11 0 -38 -9 -60 -20 -22 -11 -52 -20 -68 -20 -16 0 -41 -9 -55 -20 -21
-17 -24 -26 -20 -60 4 -25 1 -46 -7 -55 -17 -20 -108 -20 -130 0 -9 8 -38 18
-65 22 -27 3 -58 15 -70 25 -27 25 -55 19 -75 -17 -18 -32 -35 -35 -117 -20
-37 6 -43 5 -49 -11 -9 -28 -22 -55 -46 -93 -20 -31 -20 -34 -4 -61 15 -26 15
-30 0 -45 -12 -12 -26 -15 -50 -10 -25 4 -38 1 -53 -14 -11 -11 -28 -17 -38
-15 -12 3 -26 -7 -43 -32 -30 -46 -55 -55 -100 -39 -45 17 -148 26 -155 14 -4
-5 -25 -9 -48 -9 -52 0 -66 -9 -76 -46 -7 -28 -9 -29 -78 -32 -53 -2 -73 1
-83 13 -7 8 -22 15 -33 15 -11 0 -31 12 -44 26 -23 25 -28 26 -96 21 -40 -3
-85 -11 -102 -17 -26 -10 -31 -9 -48 14 -35 48 -82 28 -106 -44 -14 -41 -48
-80 -71 -80 -21 0 -40 -20 -40 -42 0 -11 -12 -24 -27 -30 -16 -7 -48 -31 -71
-55 -24 -24 -48 -43 -52 -43 -8 0 -41 -29 -123 -107 -16 -15 -41 -28 -60 -29
-17 -2 -43 -7 -57 -13 l-25 -10 24 0 c19 -1 13 -7 -30 -28 -78 -38 -83 -43
-59 -60 25 -18 25 -29 1 -36 -19 -5 -97 12 -118 26 -20 13 -15 27 10 27 22 0
180 69 162 71 -5 0 -38 0 -72 -1 -65 -1 -90 13 -60 35 10 7 17 22 17 33 0 22
-24 41 -100 81 -27 13 -51 36 -61 55 -9 17 -26 36 -38 42 -21 11 -29 32 -10
27 15 -5 10 17 -6 23 -8 4 -12 10 -9 15 3 6 1 15 -4 22 -5 7 -9 26 -8 42 1 28
-1 30 -39 31 -22 0 -54 4 -72 8 -30 8 -33 6 -47 -28 -10 -25 -21 -36 -35 -36
-21 0 -21 -4 -21 -305 l0 -305 26 10 c33 13 91 13 99 0 4 -6 35 -7 79 -4 67 6
74 5 94 -17 26 -27 28 -42 7 -59 -19 -16 -50 -9 -50 12 0 35 -20 41 -71 24
-26 -9 -78 -16 -116 -16 l-68 0 0 -155 0 -155 403 0 c300 0 410 3 432 13 78
33 182 92 203 113 l22 24 -20 20 c-11 11 -21 30 -23 42 -2 18 4 23 36 29 73
12 76 47 7 68 -30 9 -46 9 -53 2 -13 -13 -54 -15 -61 -3 -3 5 10 23 29 41 30
28 44 33 112 41 43 4 81 6 86 3 4 -2 6 -17 5 -31 -3 -26 -1 -27 49 -30 29 -2
57 -9 63 -17 10 -12 18 -9 53 20 22 19 45 35 50 35 5 0 7 9 4 20 -3 10 0 23 7
28 17 13 115 42 142 42 37 0 29 -27 -11 -40 -51 -17 -34 -29 24 -17 48 9 50
11 44 38 -5 29 6 37 42 29 10 -2 114 26 153 41 15 6 22 17 22 34 0 25 24 44
105 86 23 12 30 21 28 43 -2 22 4 29 27 37 16 6 36 21 45 35 8 13 24 24 34 24
27 0 43 24 35 54 -5 22 -1 28 31 43 37 18 38 18 53 -5 9 -14 24 -22 43 -22 29
0 56 -31 44 -50 -10 -17 -68 -44 -115 -55 -40 -9 -45 -14 -56 -50 -11 -39 -12
-40 -51 -37 -30 2 -44 -2 -58 -18 -23 -25 -11 -53 24 -58 13 -2 31 -12 42 -23
17 -17 28 -19 72 -13 58 7 117 28 117 41 0 5 -5 14 -10 19 -7 7 -4 19 10 36
26 34 25 41 -5 36 -14 -3 -28 -1 -31 3 -3 5 5 9 16 9 12 0 42 14 67 30 24 17
51 30 60 30 32 0 133 33 133 43 0 6 -12 24 -27 39 -30 31 -26 38 30 57 33 11
42 10 75 -6 30 -15 37 -23 35 -45 -2 -26 1 -28 38 -28 21 0 39 5 39 11 0 5 16
17 35 25 19 8 35 20 35 27 0 7 13 23 30 35 24 18 37 21 70 16 26 -4 45 -14 51
-26 13 -23 54 -21 131 7 41 15 46 20 38 35 -6 12 -25 19 -52 22 -34 3 -46 0
-60 -16 -22 -28 -52 -11 -56 32 -4 40 32 66 83 60 28 -3 35 -1 35 13 0 10 16
30 35 45 39 30 38 44 -6 44 -19 0 -29 5 -29 15 0 9 9 15 23 15 13 0 28 5 34
11 6 6 21 16 34 23 40 20 31 31 -23 30 -98 -2 -157 -15 -172 -36 -9 -13 -21
-18 -30 -15 -18 7 -20 34 -6 71 8 21 6 27 -9 35 -10 6 -27 7 -39 4 -27 -7 -30
-48 -5 -75 22 -25 9 -34 -25 -17 -38 19 -82 51 -82 60 0 4 16 16 35 28 20 11
45 36 56 56 18 29 26 35 56 35 35 0 36 0 30 -37 -11 -64 1 -69 77 -33 68 33
80 48 46 57 -11 3 -20 11 -20 18 0 7 -9 19 -21 26 -14 10 -18 20 -13 33 6 16
14 18 56 13 76 -9 190 25 173 53 -1 3 3 11 11 17 8 8 15 9 19 3 3 -6 15 -10
26 -10 26 0 39 -37 39 -109 0 -68 -24 -128 -45 -111 -19 16 -41 -11 -54 -67
-17 -75 -29 -292 -19 -334 6 -20 32 -63 58 -96 l48 -60 -40 -64 c-22 -35 -56
-81 -75 -102 -26 -29 -32 -43 -27 -60 4 -12 6 -50 6 -83 -1 -57 2 -66 35 -109
l36 -48 -18 -31 c-23 -38 -37 -49 -47 -33 -4 7 -11 1 -19 -16 -11 -24 -17 -26
-53 -23 -23 2 -72 -2 -111 -9 -38 -6 -72 -8 -75 -4 -6 8 -69 4 -102 -7 -13 -4
-31 -7 -40 -5 -10 1 -18 -3 -18 -9 0 -8 -13 -11 -37 -8 -21 3 -45 2 -53 -2
-45 -22 -104 -34 -180 -36 -51 -1 -103 -9 -130 -19 -25 -9 -74 -24 -110 -32
-36 -8 -69 -18 -74 -24 -6 -5 403 -9 1100 -9 l1109 0 28 69 c15 37 53 106 83
152 70 105 78 113 71 73 -8 -40 -101 -196 -112 -186 -5 4 -5 2 -1 -5 4 -7 -2
-30 -14 -52 -11 -22 -20 -43 -20 -46 0 -3 154 -5 343 -5 260 0 346 3 355 12
10 10 14 10 21 0 6 -10 16 -4 39 22 17 20 36 36 41 36 5 0 11 6 14 13 2 6 8 9
12 4 5 -4 -6 -22 -23 -40 -18 -18 -32 -36 -32 -40 0 -4 700 -7 1555 -7 l1555
0 0 1028 0 1028 -36 -4 c-33 -4 -35 -2 -32 19 2 17 12 27 36 34 l32 9 0 468
c0 257 -2 468 -5 468 -3 0 -25 -20 -48 -43 -23 -24 -49 -46 -57 -50 -13 -5
-12 -7 3 -17 31 -20 20 -62 -28 -103 -63 -53 -108 -71 -150 -57 -67 22 -190
-22 -197 -72 -2 -13 -10 -24 -19 -26 -13 -2 -17 9 -22 50 -7 57 0 67 43 68 31
1 70 30 74 55 2 13 10 19 22 17 11 -2 64 -5 119 -7 113 -4 148 8 93 32 -64 28
-63 27 -63 84 0 47 3 55 25 65 49 23 97 34 153 34 l57 0 0 223 c-1 148 -4 216
-10 205 -6 -9 -35 -42 -65 -74 -30 -32 -58 -67 -61 -76 -7 -25 -29 -22 -46 5
-9 13 -35 28 -64 36 l-49 13 67 32 c81 38 90 46 78 66 -8 12 -31 15 -122 12
-96 -2 -115 -5 -133 -22 -27 -25 -67 -26 -90 0 -29 32 -76 43 -116 26 -39 -17
-55 -39 -64 -90 -8 -42 -8 -41 -46 -19 -27 16 -30 16 -57 -4 -27 -20 -82 -34
-132 -34 -14 0 -41 0 -60 0 -44 0 -69 -21 -51 -43 9 -10 23 -13 44 -9 26 5 30
3 20 -8 -19 -19 -16 -43 7 -64 11 -10 20 -25 20 -33 0 -13 3 -13 18 1 12 11
36 17 63 17 25 0 50 5 55 10 6 6 30 7 57 4 46 -7 58 -16 37 -29 -7 -4 0 -17
16 -32 35 -32 78 -25 68 11 -8 35 34 60 107 63 59 3 128 35 129 61 0 14 16 16
25 2 3 -6 0 -13 -8 -16 -9 -3 -18 -16 -21 -29 -3 -13 -26 -41 -51 -62 -40 -33
-55 -60 -40 -74 2 -3 37 -2 77 2 88 9 118 3 118 -21 0 -11 5 -22 10 -25 15 -9
-6 -33 -28 -34 -60 -2 -112 -11 -146 -26 -33 -14 -57 -16 -136 -10 -72 5 -110
3 -154 -9 -56 -14 -60 -14 -84 5 -32 24 -46 24 -82 -2 -26 -20 -33 -21 -74
-10 -25 6 -66 11 -92 11 -39 0 -45 2 -35 14 24 28 -14 64 -69 65 -8 0 -43 5
-77 11 -58 9 -66 8 -110 -16 -52 -27 -72 -59 -65 -104 3 -24 9 -30 28 -30 13
0 28 -9 34 -20 6 -12 29 -25 55 -31 32 -8 45 -16 45 -29 0 -23 -17 -29 -103
-36 -122 -9 -137 -13 -147 -39 -5 -13 -21 -29 -37 -37 -29 -14 -81 -98 -82
-134 -1 -16 -8 -21 -33 -22 -94 -5 -158 -15 -169 -28 -23 -27 -87 -9 -114 33
-21 31 -55 31 -55 0 0 -14 -12 -32 -30 -46 -28 -20 -29 -24 -16 -42 7 -11 12
-29 9 -40 -6 -21 -18 -25 -28 -9 -3 5 -15 10 -26 10 -11 0 -22 7 -25 15 -9 23
-28 18 -52 -15 -17 -23 -31 -30 -56 -30 -20 0 -40 -8 -51 -20 -15 -17 -20 -18
-44 -6 -46 23 -103 27 -123 9 -30 -27 -21 -34 35 -28 45 5 56 3 76 -16 21 -20
30 -21 105 -15 65 5 84 11 97 27 19 25 64 17 80 -13 12 -23 -1 -38 -34 -38
-14 0 -37 -34 -37 -55 0 -5 64 -19 78 -16 6 1 12 -3 12 -9 0 -12 16 -1 55 38
30 29 22 85 -13 90 -36 5 -20 24 41 49 43 17 62 21 82 13 14 -5 25 -14 25 -20
0 -5 15 -10 34 -10 44 0 52 -21 24 -70 -20 -34 -21 -41 -8 -66 l14 -29 10 38
c11 41 14 43 108 51 42 3 60 1 69 -10 6 -8 24 -14 40 -14 16 0 29 -4 29 -10 0
-5 17 -17 37 -25 29 -12 34 -18 23 -25 -11 -7 -11 -11 -1 -24 10 -12 9 -20 -3
-45 -9 -16 -16 -32 -16 -36 0 -11 38 -4 95 20 96 39 159 29 105 -18 -40 -34
-15 -63 31 -35 17 11 22 10 35 -6 21 -29 17 -44 -16 -61 -37 -19 -50 -19 -65
1 -17 23 -59 1 -52 -27 7 -24 -38 -79 -64 -79 -10 0 -23 -9 -29 -19 -8 -16 -5
-23 16 -40 31 -24 62 -27 89 -8 23 17 12 37 -21 37 -14 0 -24 6 -24 14 0 14
51 40 79 39 9 0 21 3 26 7 6 5 32 6 58 3 37 -4 47 -9 45 -22 -2 -9 -13 -20
-26 -26 -30 -13 -28 -21 8 -28 21 -5 30 -12 30 -26 0 -11 8 -24 18 -29 21 -12
135 -21 255 -22 99 0 120 -14 73 -51 -14 -11 -26 -29 -26 -39 0 -24 -37 -50
-72 -50 -39 0 -74 -19 -87 -46 -14 -33 5 -42 33 -15 25 23 34 25 131 22 78 -2
108 -12 87 -33 -6 -6 -12 -16 -12 -20 0 -11 44 -10 77 3 24 9 30 7 45 -11 22
-28 23 -58 2 -81 -15 -17 -15 -20 0 -44 21 -32 15 -41 -33 -56 -31 -9 -43 -8
-69 5 -57 29 -82 15 -63 -36 11 -30 4 -44 -31 -57 -20 -8 -36 -7 -62 4 -51 22
-64 19 -98 -19 -25 -29 -33 -33 -44 -22 -21 21 -164 -9 -206 -43 l-23 -19 27
-7 c22 -6 98 8 163 30 11 4 4 -3 -15 -15 -19 -12 -57 -26 -85 -31 -96 -16
-114 -21 -126 -35 -6 -8 -17 -14 -23 -14 -7 0 -30 -9 -52 -19 -21 -11 -43 -17
-48 -14 -4 3 -12 0 -16 -7 -4 -6 -36 -15 -72 -20 -36 -4 -75 -13 -87 -20 -13
-6 -68 -16 -124 -21 -126 -13 -169 -23 -191 -48 -10 -11 -24 -17 -32 -14 -8 3
-41 1 -72 -5 -31 -7 -88 -14 -126 -16 -49 -3 -72 -9 -78 -20 -12 -22 -31 -20
-54 5 -28 31 -103 19 -196 -32 -24 -13 -58 -11 -58 2 0 7 -12 10 -33 6 l-32
-5 -54 161 c-55 164 -79 215 -115 237 -15 9 -13 4 7 -19 35 -42 35 -57 1 -26
-15 14 -32 25 -38 25 -11 0 -276 127 -286 137 -3 2 4 11 15 19 14 10 32 13 58
9 l37 -7 0 105 0 105 38 30 c28 22 44 29 65 25 16 -3 27 -1 27 6 0 6 -3 11 -8
11 -4 0 -12 10 -17 22 -6 12 -18 25 -27 30 -56 26 -53 20 -50 118 2 64 0 90
-8 85 -5 -3 -8 -11 -4 -16 3 -6 -3 -5 -15 3 -19 12 -26 29 -21 53 1 5 -8 1
-20 -10 -20 -19 -23 -19 -34 -3 -7 10 -16 15 -19 11 -4 -3 -7 6 -7 20 l0 27
-20 -20 c-36 -36 -43 -26 -36 47 10 96 14 107 32 89 8 -8 14 -25 15 -38 1 -19
2 -18 10 8 5 17 19 39 31 50 12 10 18 13 14 6 -4 -7 -1 -12 8 -12 9 0 16 5 16
10 0 6 7 10 15 10 9 0 12 -6 8 -17 -4 -11 -3 -14 5 -9 7 4 12 21 12 37 0 32
-13 40 -100 63 -32 9 -46 18 -48 32 -2 11 -21 43 -44 70 -22 27 -58 72 -78
100 -25 34 -51 55 -79 66 -39 15 -42 15 -66 -4 l-25 -19 -10 26 c-5 14 -10 37
-10 50 0 13 -11 37 -25 53 -15 18 -28 49 -31 75 -6 42 -4 48 37 98 24 30 55
78 68 107 14 28 28 52 32 52 19 0 25 -98 8 -133 -10 -21 -10 -21 5 -3 15 19
16 18 16 -20 0 -21 -9 -59 -20 -83 -18 -39 -18 -42 -3 -30 10 8 26 23 35 34
20 23 23 14 7 -17 -8 -15 -8 -19 1 -13 6 4 16 18 21 32 8 20 12 23 24 13 12
-10 14 -1 17 57 2 54 -2 78 -20 115 -12 26 -22 54 -22 61 0 8 -9 26 -20 40
-26 33 -25 40 8 54 82 37 141 120 142 200 0 23 3 44 8 46 4 3 19 -5 35 -18 28
-25 37 -42 15 -29 -10 5 -10 4 -2 -6 7 -7 21 -9 33 -5 l21 6 -21 32 c-12 18
-40 51 -63 75 -46 48 -39 54 19 16 24 -15 31 -17 17 -6 -14 13 -18 22 -10 24
20 7 88 -15 88 -29 0 -7 7 -13 15 -13 16 0 21 -15 8 -23 -5 -2 -2 -2 5 0 8 2
23 -7 34 -19 16 -18 18 -19 14 -5 -3 11 -2 16 4 12 15 -9 12 -63 -4 -72 -11
-7 -10 -15 5 -48 9 -22 18 -33 18 -25 0 8 -3 21 -8 29 -7 10 -4 19 7 28 23 17
32 16 32 -2 0 -19 0 -19 38 1 18 8 36 13 42 9 5 -3 10 -1 10 5 0 11 49 3 65
-11 5 -5 19 -9 31 -9 13 0 25 -4 29 -10 3 -5 12 -7 20 -4 8 3 19 2 26 -2 18
-11 81 -15 74 -4 -3 4 3 7 12 6 10 -2 27 3 38 10 11 8 26 14 34 14 8 0 40 10
72 21 52 19 57 24 48 40 -6 13 -6 19 0 19 6 0 13 11 17 24 3 14 33 49 67 78
34 29 69 60 79 68 40 36 46 38 79 31 l33 -7 -24 -17 c-13 -9 -39 -20 -58 -23
-22 -4 -36 -14 -42 -29 -5 -12 -15 -29 -24 -37 -13 -14 -11 -17 22 -34 20 -11
39 -22 40 -26 6 -13 30 -9 35 5 3 6 6 3 7 -8 2 -46 84 -70 116 -33 9 9 22 14
30 11 8 -3 14 1 14 8 0 7 7 20 16 30 26 29 11 52 -28 43 -18 -4 -41 -7 -50 -6
-23 1 -23 -14 -1 -22 12 -5 13 -10 5 -18 -15 -15 -43 -2 -36 17 5 12 -2 15
-32 15 -22 0 -46 5 -54 10 -12 7 -11 13 9 34 32 35 55 40 84 21 21 -14 37 -14
107 -6 52 7 88 7 100 1 13 -7 24 -4 45 14 15 13 44 29 65 36 21 7 62 32 92 56
29 24 58 44 63 44 6 0 28 9 50 20 59 30 71 26 45 -15 -12 -19 -17 -35 -12 -35
5 0 21 -9 36 -21 37 -29 21 -52 -49 -69 -31 -7 -64 -19 -73 -26 -16 -12 -16
-13 1 -19 33 -13 124 5 151 30 14 13 26 29 26 35 0 5 7 10 15 10 8 0 12 -6 9
-14 -3 -8 2 -26 11 -40 14 -22 25 -26 64 -27 l46 -1 -31 -13 c-17 -8 -36 -20
-43 -29 -11 -13 -9 -16 13 -22 15 -3 32 -1 39 5 7 5 39 17 70 25 85 22 175 57
188 72 20 24 -8 44 -60 44 -67 0 -90 -9 -97 -36 -6 -25 -19 -31 -28 -15 -3 5
-24 7 -46 4 -39 -5 -76 10 -65 27 3 4 37 16 77 25 40 10 99 31 130 46 74 37
88 37 88 -1 0 -39 32 -58 51 -30 14 19 89 48 249 96 91 28 120 40 120 52 0 4
-18 6 -40 4 -22 -2 -40 -8 -40 -12 0 -8 -55 -22 -95 -25 -11 -1 -31 -5 -44 -9
-21 -7 -20 -4 10 21 45 40 185 93 226 87 27 -4 32 -2 35 17 4 26 28 39 28 15
0 -9 6 -16 13 -16 6 0 18 -4 26 -9 12 -8 12 -12 2 -24 -9 -12 -17 -13 -42 -3
-28 10 -33 9 -50 -13 -27 -33 -24 -41 19 -42 l37 -1 -45 -21 c-65 -32 -70 -36
-63 -53 4 -11 17 -15 47 -12 38 2 41 1 41 -22 0 -21 4 -24 25 -22 14 2 34 12
45 23 13 12 29 16 43 13 12 -4 30 -3 39 1 10 5 24 9 32 11 45 9 72 18 126 44
33 16 74 32 90 36 17 4 35 10 40 15 6 4 17 4 25 -1 8 -6 23 -10 33 -10 15 0
17 11 17 91 0 83 -2 90 -17 84 -35 -15 -108 -33 -116 -28 -16 9 15 31 73 53
l60 22 0 1124 0 1124 -701 0 -702 0 -324 -317 c-515 -505 -704 -685 -785 -746
-63 -47 -31 -6 55 71 116 102 851 832 926 920 l63 72 -1290 0 -1291 0 -123
-78 c-239 -152 -330 -207 -401 -245 -40 -21 -182 -111 -317 -201 -135 -89
-252 -166 -260 -170 -45 -23 76 67 215 161 88 58 179 122 202 140 23 18 75 52
115 74 65 37 449 288 473 310 5 5 -884 9 -2053 9 l-2062 0 0 -1525z m5401
1282 c-8 -8 -15 -7 -28 5 -14 14 -14 20 -3 33 11 14 14 13 28 -6 10 -15 11
-24 3 -32z m-4763 -6 c3 -8 -1 -12 -9 -9 -7 2 -15 10 -17 17 -3 8 1 12 9 9 7
-2 15 -10 17 -17z m5642 -235 c0 -2 -8 -10 -17 -17 -16 -13 -17 -12 -4 4 13
16 21 21 21 13z m-3120 -137 c0 -6 -4 -7 -10 -4 -5 3 -10 11 -10 16 0 6 5 7
10 4 6 -3 10 -11 10 -16z m-265 -229 c-4 -6 -52 -41 -108 -79 -133 -89 -314
-224 -316 -234 0 -5 27 -9 61 -10 42 -1 78 -9 109 -24 25 -13 53 -23 62 -23
18 0 51 55 42 70 -3 6 -1 10 4 10 6 0 11 -6 11 -12 0 -10 2 -10 9 0 6 10 10 8
15 -10 5 -19 8 -20 15 -8 6 8 13 11 17 7 4 -4 -1 -13 -11 -21 -16 -12 -17 -16
-6 -29 7 -9 10 -21 7 -26 -9 -14 -36 -2 -30 13 3 8 -5 12 -22 11 -35 0 -40
-15 -14 -45 11 -13 20 -26 20 -30 0 -3 9 -16 20 -28 15 -15 22 -39 24 -84 3
-35 7 -72 11 -84 6 -18 0 -21 -56 -32 -34 -6 -66 -9 -72 -5 -5 3 -18 25 -28
49 l-19 43 -40 -14 c-21 -8 -48 -19 -60 -25 -13 -7 -41 -9 -76 -4 -46 5 -63
13 -95 44 -25 23 -39 46 -39 62 0 14 -11 34 -26 47 l-25 22 -57 -36 c-31 -20
-106 -70 -167 -111 -209 -144 -175 -104 60 69 174 128 286 208 392 280 45 31
126 86 180 124 91 63 202 133 211 133 2 0 0 -5 -3 -10z m4445 -130 c0 -16 -7
-20 -30 -20 -18 0 -30 5 -30 13 0 20 10 27 37 27 16 0 23 -6 23 -20z m-4330
-40 c0 -5 -7 -10 -16 -10 -8 0 -12 5 -9 10 3 6 10 10 16 10 5 0 9 -4 9 -10z
m-410 -80 c0 -5 -5 -10 -11 -10 -5 0 -7 5 -4 10 3 6 8 10 11 10 2 0 4 -4 4
-10z m4850 -18 c0 -4 -5 -13 -11 -19 -17 -17 -2 -33 31 -33 30 0 48 -14 31
-25 -6 -3 -34 -2 -65 3 -39 6 -61 5 -78 -4 -32 -18 -39 -17 -30 4 15 39 42 65
74 72 46 11 48 11 48 2z m-4568 -114 c-15 -15 -26 -4 -18 18 5 13 9 15 18 6 9
-9 9 -15 0 -24z m589 2 c46 -11 89 -26 97 -34 21 -21 8 -64 -23 -72 -14 -3
-25 -10 -25 -14 0 -15 -125 -70 -159 -70 -86 0 -152 42 -153 98 -1 35 21 58
87 92 50 25 73 25 176 0z m3659 -12 c0 -7 -5 -20 -10 -28 -8 -13 -11 -12 -24
5 -11 15 -11 22 -3 27 18 12 37 9 37 -4z m-1791 -219 c-90 -89 -225 -218 -299
-288 -74 -69 -177 -167 -228 -216 l-93 -91 22 -29 23 -30 -25 22 c-13 12 -28
22 -34 22 -5 0 -11 7 -13 15 -2 9 3 16 12 16 9 0 127 109 264 243 456 446 523
510 529 503 4 -3 -67 -79 -158 -167z m1781 161 c0 -5 -4 -10 -10 -10 -5 0 -10
5 -10 10 0 6 5 10 10 10 6 0 10 -4 10 -10z m-5800 -90 c0 -10 -31 -23 -38 -15
-8 7 19 35 29 29 5 -3 9 -9 9 -14z m1175 -110 c3 -5 1 -10 -4 -10 -6 0 -11 5
-11 10 0 6 2 10 4 10 3 0 8 -4 11 -10z m1035 -54 c0 -3 -4 -8 -10 -11 -5 -3
-10 -1 -10 4 0 6 5 11 10 11 6 0 10 -2 10 -4z m4653 -16 c9 -7 -21 -80 -38
-92 -11 -8 -32 7 -45 33 -7 11 -5 27 6 48 13 26 19 30 42 25 15 -4 31 -10 35
-14z m-6348 -34 c-27 -24 -52 -42 -55 -39 -7 7 77 83 92 83 7 0 -9 -20 -37
-44z m-82 -67 c-11 -12 -27 -19 -34 -17 -9 3 -3 11 16 21 40 22 43 21 18 -4z
m2398 -26 c38 -15 67 -28 66 -30 -2 -2 -39 6 -83 18 -43 12 -92 25 -109 29
-28 7 -27 8 14 9 26 1 71 -10 112 -26z m-1843 -8 c20 -44 15 -53 -27 -53 -34
-1 -40 3 -44 24 -9 50 51 74 71 29z m1342 -11 c-19 -8 -30 -18 -25 -22 6 -4
11 -13 13 -21 2 -11 -9 -13 -55 -8 -53 5 -56 5 -28 -7 l30 -13 -35 -7 c-19 -3
-45 -8 -58 -10 -13 -3 -33 -12 -45 -20 -12 -9 -42 -30 -66 -46 -63 -42 -111
-88 -111 -106 0 -8 -14 -35 -30 -60 -32 -45 -44 -56 -34 -29 9 23 -18 8 -40
-22 -11 -15 -34 -51 -53 -82 -47 -78 -41 -52 7 31 22 39 40 73 40 77 0 4 18
22 40 40 22 17 40 36 40 42 0 6 -22 -9 -50 -32 -27 -23 -47 -46 -44 -50 3 -5
-1 -9 -10 -9 -13 0 -39 -26 -79 -80 -29 -40 -7 0 33 60 21 30 38 60 39 65 0 6
5 10 9 10 8 0 47 31 212 164 41 34 78 61 82 61 5 0 5 12 2 26 -6 24 -5 25 15
15 22 -12 55 -5 156 33 54 20 92 20 45 0z m-1965 -3 c-6 -5 -57 -44 -115 -88
-166 -125 -390 -300 -444 -346 -52 -44 -126 -91 -126 -79 0 4 7 16 16 27 9 12
12 30 9 46 -8 34 13 51 58 47 31 -3 52 9 169 94 315 231 423 308 432 308 6 0
6 -3 1 -9z m6321 -16 c-3 -9 5 -21 22 -30 l27 -16 -35 6 c-39 6 -66 27 -56 44
11 17 49 14 42 -4z m169 -5 c-3 -5 -17 -10 -31 -10 -13 0 -24 5 -24 10 0 6 14
10 31 10 17 0 28 -4 24 -10z m-3805 -56 c0 -2 -9 0 -20 6 -11 6 -20 13 -20 16
0 2 9 0 20 -6 11 -6 20 -13 20 -16z m-660 1 c16 -8 35 -25 41 -37 11 -21 11
-21 -26 2 -38 24 -95 34 -95 18 0 -5 -4 -6 -10 -3 -15 10 -12 23 8 28 33 9 53
7 82 -8z m755 -54 c80 -71 124 -101 142 -95 17 5 17 5 1 -9 -17 -13 -16 -16
11 -53 15 -21 38 -48 50 -58 11 -11 21 -24 21 -29 0 -6 -14 2 -32 19 -31 29
-30 17 1 -20 15 -18 15 -18 -5 -8 -11 6 -27 19 -35 28 -8 9 -38 35 -66 56 -51
37 -68 68 -38 68 11 0 10 7 -6 35 -12 19 -24 35 -27 35 -4 1 -25 17 -47 36
-22 20 -31 32 -20 28 11 -4 34 -19 50 -33z m3209 -67 c10 -4 16 -18 16 -36 0
-26 -3 -29 -22 -23 -27 8 -60 43 -52 56 6 10 35 12 58 3z m-1706 -70 c43 -34
65 -85 57 -133 -15 -88 -119 -145 -193 -107 -52 27 -75 62 -80 121 -4 54 -4
56 40 100 41 41 50 45 93 45 37 0 56 -6 83 -26z m692 11 c0 -8 -7 -15 -15 -15
-8 0 -15 7 -15 15 0 8 7 15 15 15 8 0 15 -7 15 -15z m-2010 -20 c13 -14 21
-25 18 -25 -2 0 -15 11 -28 25 -13 14 -21 25 -18 25 2 0 15 -11 28 -25z m1577
-31 c-9 -9 -28 6 -21 18 4 6 10 6 17 -1 6 -6 8 -13 4 -17z m1406 -15 c8 -32
-33 -45 -125 -41 -31 2 -35 5 -31 22 3 11 15 22 27 25 11 2 39 8 61 13 48 10
61 7 68 -19z m-5208 -29 c-3 -5 -11 -10 -16 -10 -6 0 -7 5 -4 10 3 6 11 10 16
10 6 0 7 -4 4 -10z m5020 -19 c-6 -5 -27 -14 -47 -21 -25 -7 -38 -18 -38 -29
0 -23 -50 -70 -103 -96 -28 -15 -48 -33 -60 -59 -16 -34 -21 -37 -45 -31 -14
3 -75 6 -135 6 l-109 0 27 23 c19 16 48 25 105 33 43 6 84 16 91 22 8 6 23 18
34 26 17 11 18 16 7 27 -11 11 -17 9 -32 -10 -11 -14 -21 -18 -25 -12 -15 25
49 58 98 51 10 -1 38 11 64 28 43 29 64 35 138 44 17 2 32 5 35 6 2 0 0 -3 -5
-8z m389 -37 c24 -9 19 -22 -13 -39 -19 -9 -41 -12 -61 -9 -34 7 -31 14 15 38
34 18 37 18 59 10z m-1338 -15 c9 -15 -11 -33 -30 -26 -9 4 -13 13 -10 22 7
17 30 20 40 4z m-1681 -61 c14 -29 42 -72 64 -96 22 -24 43 -53 47 -65 6 -19
3 -18 -15 6 -13 15 -29 27 -36 27 -8 0 -20 10 -26 23 -11 20 -11 21 4 8 25
-20 20 -1 -7 28 -22 25 -70 121 -60 121 3 0 16 -24 29 -52z m2868 12 c3 -14
-2 -21 -17 -26 -11 -3 -35 -17 -53 -30 -80 -60 -180 -93 -197 -65 -3 5 -15 7
-25 4 -10 -3 -22 0 -25 6 -4 6 -25 11 -47 11 -47 0 -49 10 -8 34 27 16 46 18
128 13 115 -6 145 0 149 32 2 14 15 27 35 36 36 15 53 11 60 -15z m-2940 -39
c25 -23 27 -23 27 -6 0 17 2 18 15 5 8 -8 16 -25 18 -38 2 -12 35 -62 73 -110
90 -112 129 -163 138 -182 4 -8 -3 -2 -16 15 -68 87 -190 230 -257 300 -69 72
-69 79 2 16z m-2369 34 c-4 -8 -8 -15 -10 -15 -2 0 -4 7 -4 15 0 8 4 15 10 15
5 0 7 -7 4 -15z m656 -5 c-6 -11 -13 -20 -16 -20 -2 0 0 9 6 20 6 11 13 20 16
20 2 0 0 -9 -6 -20z m4715 -73 c24 -18 11 -37 -24 -37 -16 0 -58 -11 -93 -24
-56 -21 -216 -49 -227 -40 -2 2 9 8 25 14 16 5 37 15 46 20 10 6 26 10 36 10
10 0 61 15 113 34 112 41 101 39 124 23z m-2258 -23 c9 -24 -10 -49 -38 -49
-27 0 -37 28 -19 50 17 20 49 19 57 -1z m1338 -25 c-7 -11 -55 -12 -55 -1 0 4
5 13 12 20 13 13 52 -3 43 -19z m-2019 -44 c18 -20 24 -36 23 -68 -1 -26 -3
-33 -6 -18 -3 13 -16 42 -29 63 -14 21 -29 51 -34 66 -10 27 -9 27 6 5 9 -12
27 -34 40 -48z m26 -120 c3 4 4 -11 1 -32 -5 -38 -3 -42 58 -97 43 -39 54 -53
34 -43 -16 8 -56 39 -88 69 -63 58 -82 103 -92 218 l-4 55 42 -88 c24 -48 46
-85 49 -82z m2255 121 c-5 -15 -47 -20 -60 -7 -7 7 -3 13 14 19 28 11 52 5 46
-12z m713 -86 c0 -5 -7 -10 -16 -10 -8 0 -12 5 -9 10 3 6 10 10 16 10 5 0 9
-4 9 -10z m-4680 -61 c0 -11 -4 -18 -10 -14 -5 3 -7 12 -3 20 7 21 13 19 13
-6z m3770 -9 c-20 -13 -33 -13 -25 0 3 6 14 10 23 10 15 0 15 -2 2 -10z m426
-25 c-11 -8 -24 -15 -30 -15 -5 0 -1 7 10 15 10 8 24 14 29 14 6 0 1 -6 -9
-14z m-1533 -10 c1 -5 -6 -11 -15 -13 -11 -2 -18 3 -18 13 0 17 30 18 33 0z
m-973 -66 c0 -6 -4 -7 -10 -4 -5 3 -10 11 -10 16 0 6 5 7 10 4 6 -3 10 -11 10
-16z m2150 -9 c0 -5 -5 -10 -11 -10 -5 0 -7 5 -4 10 3 6 8 10 11 10 2 0 4 -4
4 -10z m-3370 -10 c0 -5 -4 -10 -10 -10 -5 0 -10 5 -10 10 0 6 5 10 10 10 6 0
10 -4 10 -10z m2393 -45 c1 -5 -16 -11 -38 -13 -22 -2 -44 -8 -49 -13 -13 -11
-46 -12 -46 0 0 15 82 41 118 37 7 0 14 -5 15 -11z m-844 -21 c2 -2 -10 -4
-27 -4 -18 0 -32 5 -32 10 0 9 47 4 59 -6z m-1861 -62 c-11 -5 -36 16 -50 42
-9 16 -3 14 23 -9 19 -17 31 -32 27 -33z m1977 44 c19 -8 35 -17 35 -20 0 -6
-54 10 -77 23 -27 16 2 13 42 -3z m-386 -5 c-14 -5 -12 -12 17 -45 29 -34 34
-36 34 -18 0 12 3 22 8 23 14 1 57 9 79 14 50 12 79 -119 40 -178 -21 -33 -34
-34 -78 -4 -25 17 -39 38 -54 81 -15 47 -28 65 -62 90 -23 17 -42 34 -43 38 0
3 17 6 38 6 21 0 30 -3 21 -7z m584 -41 c-10 -11 -63 -24 -63 -16 0 9 54 34
63 29 5 -3 5 -9 0 -13z m-2838 -55 l18 -30 -21 19 c-12 11 -22 26 -22 34 0 17
-1 18 25 -23z m5310 25 c3 -5 -3 -10 -14 -10 -11 0 -23 5 -26 10 -3 6 3 10 14
10 11 0 23 -4 26 -10z m-3055 -55 c0 -5 -5 -3 -10 5 -5 8 -10 20 -10 25 0 6 5
3 10 -5 5 -8 10 -19 10 -25z m1010 21 c0 -19 -13 -27 -53 -33 -17 -3 -43 -11
-57 -18 -14 -6 -41 -15 -60 -19 -32 -6 -33 -6 -15 9 20 16 19 16 -2 10 -14 -4
-23 -2 -23 4 0 6 7 11 15 11 8 0 15 6 15 13 1 7 6 5 14 -6 14 -18 17 -17 73
11 66 33 93 38 93 18z m2358 -15 c10 -6 10 -10 -3 -21 -18 -15 -42 0 -31 19 8
13 16 14 34 2z m-3144 -92 c-11 -18 -25 -34 -32 -37 -8 -2 -1 14 14 37 31 48
46 48 18 0z m3131 0 c20 -38 13 -59 -18 -59 -14 0 -32 -12 -45 -30 -26 -35
-42 -38 -49 -10 -6 23 -11 24 -50 9 -55 -21 -183 -13 -183 12 0 18 144 47 154
30 3 -5 17 -6 31 -3 14 2 31 0 38 -6 6 -6 24 -8 40 -5 25 5 27 8 21 40 -5 25
-3 38 7 44 24 15 38 10 54 -22z m-3295 -49 c0 -28 -2 -30 -20 -20 -23 12 -27
32 -5 24 9 -4 15 0 15 10 0 9 2 16 5 16 3 0 5 -14 5 -30z m-3830 -35 c8 -5 21
-10 28 -11 8 -2 19 -10 26 -20 10 -13 17 -14 34 -5 18 10 21 9 16 -4 -4 -8
-11 -15 -17 -15 -6 0 -1 -10 11 -23 12 -13 22 -26 22 -29 0 -11 -44 4 -73 25
-25 17 -30 17 -45 5 -37 -32 -48 -34 -29 -4 22 33 12 51 -33 61 -22 5 -27 11
-23 23 13 33 28 33 83 -3z m3502 -102 c-6 -10 -20 -27 -33 -38 -24 -21 -20
-10 14 38 21 30 35 31 19 0z m238 0 c0 -28 -12 -63 -20 -63 -14 0 -21 63 -8
72 20 12 28 10 28 -9z m-3585 -23 c3 -5 -1 -10 -9 -10 -9 0 -16 5 -16 10 0 6
4 10 9 10 6 0 13 -4 16 -10z m420 -90 c3 -5 1 -10 -4 -10 -6 0 -11 5 -11 10 0
6 2 10 4 10 3 0 8 -4 11 -10z m854 -35 c-22 -49 -15 -73 28 -96 33 -18 28 -31
-9 -27 -38 3 -78 44 -78 78 0 17 3 20 13 12 10 -9 18 -1 35 33 28 58 37 58 11
0z m4591 40 c0 -2 -7 -11 -16 -20 -12 -11 -25 -14 -48 -9 -37 8 -48 13 -42 22
4 7 106 13 106 7z m709 -1 c19 -4 31 -13 31 -23 0 -21 -65 -73 -88 -70 -9 1
-29 -1 -44 -5 -21 -6 -34 -3 -54 13 -15 12 -33 21 -41 21 -9 0 -13 8 -11 23 3
20 8 22 63 22 33 0 69 6 80 12 24 15 24 15 64 7z m-3464 -13 c-6 -5 -21 -12
-35 -15 l-25 -7 25 15 c28 17 50 21 35 7z m419 -47 c9 -23 7 -62 -3 -69 -11
-6 -35 61 -26 75 9 15 22 12 29 -6z m2554 2 c52 0 62 -3 62 -17 0 -29 -86
-102 -140 -119 -37 -12 -47 -19 -39 -27 6 -6 8 -16 5 -22 -10 -15 -36 -2 -36
18 0 20 -29 48 -82 80 -21 13 -38 26 -38 31 0 4 17 22 37 40 36 32 38 32 102
24 36 -4 94 -8 129 -8z m-3488 -37 c16 -23 27 -45 24 -50 -8 -13 -125 -92
-129 -87 -2 2 -8 22 -13 46 -11 49 9 99 49 119 34 18 36 17 69 -28z m-150 -35
c0 -49 -2 -55 -15 -44 -18 15 -20 71 -3 88 7 7 13 12 15 12 2 0 3 -25 3 -56z
m-1166 -60 c3 -8 2 -12 -4 -9 -6 3 -10 10 -10 16 0 14 7 11 14 -7z m1180 -60
c18 -6 18 -7 -5 -25 -50 -40 -54 -40 -57 1 -1 21 2 41 7 45 6 3 8 13 5 23 -3
9 3 5 13 -11 10 -15 26 -30 37 -33z m-1279 36 c3 -5 1 -10 -4 -10 -6 0 -11 5
-11 10 0 6 2 10 4 10 3 0 8 -4 11 -10z m4575 1 c0 -6 -4 -12 -9 -15 -16 -10
-19 -65 -3 -68 8 -2 20 -21 28 -43 17 -50 17 -60 1 -47 -7 6 -30 12 -52 14
-37 3 -40 5 -37 29 2 21 -3 28 -23 33 -21 5 -25 11 -20 29 10 32 62 77 90 77
14 0 25 -4 25 -9z m-4716 -72 c-3 -5 -10 -7 -15 -3 -5 3 -7 10 -3 15 3 5 10 7
15 3 5 -3 7 -10 3 -15z m5055 -48 c15 -10 7 -31 -13 -31 -7 0 -21 -9 -30 -19
-17 -19 -17 -20 3 -30 11 -6 33 -11 49 -11 42 0 60 -24 37 -50 -9 -10 -14 -23
-11 -28 9 -16 -98 -122 -123 -122 -12 0 -32 -7 -45 -15 -15 -10 -51 -15 -114
-16 -64 -1 -95 -6 -103 -15 -6 -8 -26 -14 -43 -14 -37 0 -109 24 -114 38 -4
13 37 38 76 45 18 4 40 13 47 21 8 8 23 12 32 10 10 -2 29 4 41 14 23 18 23
19 6 37 -17 17 -17 19 15 47 20 18 40 28 52 25 10 -3 25 3 33 12 11 12 26 16
47 13 27 -4 36 2 76 47 45 52 57 58 82 42z m-549 -20 c0 -12 -20 -25 -27 -18
-7 7 6 27 18 27 5 0 9 -4 9 -9z m-3823 -33 c-3 -8 -6 -5 -6 6 -1 11 2 17 5 13
3 -3 4 -12 1 -19z m4747 3 c9 -14 -69 -62 -87 -55 -23 8 -21 16 6 34 44 30 72
37 81 21z m-1169 -32 c10 -15 -1 -23 -20 -15 -9 3 -13 10 -10 16 8 13 22 13
30 -1z m340 -3 c25 -18 13 -46 -20 -46 -20 0 -25 5 -25 23 0 38 14 46 45 23z
m-4027 -47 c-7 -5 -20 -6 -28 -2 -8 3 -26 7 -39 8 -14 1 -26 6 -28 12 -4 11
23 11 49 -1 12 -5 24 -2 35 10 17 17 18 17 21 -1 2 -9 -2 -21 -10 -26z m3735
16 c20 -14 20 -46 1 -52 -19 -6 -58 32 -51 50 8 20 26 21 50 2z m-4343 -61 c0
-8 -4 -12 -10 -9 -5 3 -10 10 -10 16 0 5 5 9 10 9 6 0 10 -7 10 -16z m5215 5
c4 -6 5 -12 2 -15 -7 -7 -37 7 -37 17 0 13 27 11 35 -2z m-6712 -54 c1 -5 -6
-11 -15 -13 -11 -2 -18 3 -18 13 0 17 30 18 33 0z m7082 -24 l30 -7 -39 -17
c-45 -20 -47 -20 -83 -6 -27 10 -27 11 -9 25 21 15 51 16 101 5z m-5545 -9 c0
-13 -12 -22 -22 -16 -10 6 -1 24 13 24 5 0 9 -4 9 -8z m-60 -17 c0 -8 -4 -15
-9 -15 -5 0 -14 7 -21 15 -10 13 -9 15 9 15 12 0 21 -6 21 -15z m-570 -50 c0
-8 -44 -23 -53 -18 -14 8 4 23 29 23 13 0 24 -2 24 -5z m-457 -37 c12 -7 33
-11 47 -9 14 1 33 -4 44 -12 15 -11 17 -17 7 -35 -11 -20 -9 -22 19 -22 18 0
62 14 100 30 60 26 130 40 130 25 0 -3 -11 -22 -24 -43 -25 -40 -90 -72 -108
-54 -6 6 -22 6 -46 -1 -20 -5 -64 -10 -97 -11 -34 -1 -84 -11 -115 -23 -30
-12 -66 -24 -80 -27 -14 -4 -43 -22 -65 -42 -30 -27 -36 -37 -26 -44 9 -5 -4
-12 -42 -20 -31 -6 -59 -16 -63 -21 -3 -5 -21 -16 -40 -24 -25 -10 -39 -26
-53 -57 -25 -58 -47 -77 -67 -56 -14 13 -12 18 17 47 42 42 29 59 -33 43 -27
-7 -46 -8 -52 -2 -15 15 1 24 94 54 47 15 116 41 153 59 56 26 67 35 63 51 -7
28 11 46 49 46 22 0 41 9 59 27 38 37 19 48 -42 24 l-51 -20 6 32 c8 44 20 57
53 57 15 0 47 9 71 20 52 23 63 24 92 8z m3062 -23 c0 -30 -39 -27 -43 3 -3
20 0 23 20 20 15 -2 23 -10 23 -23z m2660 5 c4 -6 1 -18 -6 -26 -11 -13 -14
-13 -27 0 -8 8 -11 19 -8 25 9 14 33 14 41 1z m-5029 -54 c-16 -14 -39 -26
-50 -29 -12 -2 -29 -8 -38 -12 -11 -4 -18 -3 -18 4 0 6 8 11 19 11 10 0 29 8
42 19 20 16 43 25 69 29 3 1 -8 -9 -24 -22z m138 6 c2 -4 1 -14 -4 -22 -7 -11
-12 -12 -21 -3 -6 6 -8 16 -5 22 8 13 23 14 30 3z m3028 -49 c17 -15 17 -17 2
-35 -20 -22 -47 -23 -63 -4 -10 12 -8 19 8 35 25 25 29 26 53 4z m-3339 -53
c-14 -13 -121 -49 -127 -43 -3 4 -6 2 -6 -4 0 -19 -95 -38 -106 -22 -7 12 52
37 151 64 75 21 108 23 88 5z m5387 -35 c0 -8 -4 -15 -9 -15 -13 0 -22 16 -14
24 11 11 23 6 23 -9z m-3621 -77 c-7 -13 -14 -18 -16 -11 -3 7 1 22 8 35 7 13
14 18 16 11 3 -7 -1 -22 -8 -35z m4680 26 c6 -5 -65 -34 -84 -34 -9 0 -15 9
-15 26 0 24 1 25 48 18 26 -3 49 -8 51 -10z m-4634 -49 c-15 -26 -29 -45 -31
-43 -8 9 16 71 33 83 28 21 28 10 -2 -40z m85 32 c0 -2 -11 -18 -25 -37 -14
-19 -25 -29 -25 -24 0 6 5 15 12 22 7 7 8 12 4 12 -5 0 -3 7 4 15 11 13 30 21
30 12z m4610 -11 c0 -7 -7 -30 -15 -50 -12 -28 -21 -36 -40 -36 -22 0 -25 -4
-23 -38 1 -39 -7 -62 -21 -62 -14 0 -34 59 -28 82 4 12 1 28 -5 35 -13 17 -5
26 49 59 44 25 83 31 83 10z m-4603 -73 c-9 -9 -20 -13 -24 -9 -4 4 1 14 11
22 25 18 35 8 13 -13z m673 -45 c14 -16 17 -25 9 -32 -7 -8 -16 -4 -30 13 -34
42 -16 59 21 19z m-897 -55 c3 -35 2 -63 -3 -63 -9 0 -20 99 -13 118 8 19 10
13 16 -55z m4247 11 c0 -9 -7 -14 -17 -12 -25 5 -28 28 -4 28 12 0 21 -6 21
-16z m-3320 -34 c0 -5 -7 -7 -15 -4 -8 4 -15 1 -15 -7 0 -7 -3 -9 -6 -6 -9 9
16 38 27 31 5 -3 9 -9 9 -14z m-970 -4 c0 -8 -4 -18 -10 -21 -5 -3 -10 3 -10
14 0 12 5 21 10 21 6 0 10 -6 10 -14z m4456 -42 c21 -50 15 -69 -21 -69 -24 0
-33 7 -47 34 -17 35 -17 35 10 53 37 24 41 23 58 -18z m-267 -18 c9 -10 9 -16
1 -21 -16 -10 -40 2 -40 20 0 19 24 20 39 1z m-2903 -331 c-21 -16 -32 -13
-21 4 3 6 14 11 23 11 15 -1 15 -2 -2 -15z m-1988 -147 c3 -22 -2 -30 -21 -37
-29 -11 -65 -4 -89 17 -30 26 9 53 72 49 30 -2 35 -6 38 -29z m71 -67 c22 -14
-4 -41 -40 -41 -33 0 -45 15 -29 35 14 17 48 19 69 6z m-251 -47 c28 -19 28
-50 1 -64 -30 -16 -18 -34 26 -40 51 -7 53 -22 8 -52 -50 -34 -107 -42 -139
-21 -22 14 -23 18 -10 32 8 9 16 30 18 46 3 27 0 31 -34 39 -21 5 -38 15 -38
23 0 19 70 52 110 53 20 0 46 -7 58 -16z m1625 -46 c-39 -60 -123 -172 -123
-164 0 23 130 206 146 206 2 0 -8 -19 -23 -42z m-1935 0 c-3 -25 -34 -36 -51
-19 -14 14 9 41 35 41 14 0 19 -6 16 -22z m83 -33 c0 -6 -10 -12 -23 -13 -19
-4 -20 -2 -9 12 15 17 33 18 32 1z m1919 -15 c0 -9 -32 -30 -46 -30 -4 0 1 9
11 20 19 21 35 26 35 10z m-2126 -22 c20 -9 23 -14 15 -25 -23 -27 -84 -8 -72
23 6 17 24 18 57 2z m-294 -87 c0 -16 -60 -35 -72 -23 -8 8 -5 14 13 21 31 12
59 13 59 2z m141 -49 c-7 -14 -6 -25 6 -41 11 -17 12 -26 4 -34 -16 -16 -43 3
-52 36 -6 23 -3 30 19 42 35 18 34 18 23 -3z m489 -7 c0 -8 -7 -15 -15 -15 -8
0 -15 7 -15 15 0 8 7 15 15 15 8 0 15 -7 15 -15z m-1320 -20 c0 -8 -4 -15 -9
-15 -13 0 -22 16 -14 24 11 11 23 6 23 -9z m-900 -5 c-8 -5 -22 -9 -30 -9 -10
0 -8 3 5 9 27 12 43 12 25 0z m1120 -30 c0 -5 -4 -10 -10 -10 -5 0 -10 5 -10
10 0 6 5 10 10 10 6 0 10 -4 10 -10z m4580 1 c0 -5 -7 -11 -15 -15 -9 -3 -15
0 -15 9 0 8 7 15 15 15 8 0 15 -4 15 -9z m-1609 -38 c-17 -31 -101 -125 -101
-113 0 6 -5 8 -11 5 -6 -4 -8 -13 -5 -21 3 -8 -10 -22 -32 -35 -20 -12 -69
-54 -109 -92 -40 -39 -76 -68 -79 -64 -10 10 27 48 39 40 6 -4 7 -1 2 6 -4 8
7 28 31 53 50 52 154 129 165 123 4 -3 13 4 19 16 12 22 79 99 87 99 2 0 -1
-8 -6 -17z m-261 2 c0 -1 -14 -14 -31 -31 -31 -29 -31 -29 -24 -4 4 14 12 28
17 31 8 5 38 8 38 4z m1872 -68 c52 5 108 -8 108 -25 0 -4 -17 -7 -37 -6 -25
2 -17 -2 22 -9 53 -11 60 -15 62 -37 1 -15 0 -18 -3 -7 -5 15 -16 21 -36 18
-19 -2 -205 53 -218 65 -12 12 -10 13 18 5 17 -5 56 -7 84 -4z m-4692 -17 c0
-5 -4 -10 -10 -10 -5 0 -10 5 -10 10 0 6 5 10 10 10 6 0 10 -4 10 -10z m6537
-52 c7 -6 13 -25 13 -43 0 -36 -37 -75 -70 -75 -20 0 -53 33 -43 43 3 4 1 7
-5 7 -7 0 -12 4 -12 9 0 4 12 6 26 3 14 -2 21 -8 15 -11 -6 -4 -7 -12 -1 -21
7 -10 10 -11 10 -2 0 6 7 12 15 12 9 0 12 -6 8 -17 -5 -14 -3 -16 7 -6 11 10
10 17 -4 37 -9 15 -21 26 -26 26 -5 0 -7 7 -4 15 4 8 11 15 16 15 6 0 8 -7 4
-15 -3 -8 -1 -15 4 -15 6 0 10 9 10 20 0 23 -29 27 -48 8 -9 -9 -12 -9 -12 0
0 30 65 37 97 10z m-1774 -32 c32 -15 64 -25 72 -22 9 3 12 0 8 -10 -3 -7 -7
-14 -9 -14 -11 0 -131 60 -149 74 l-20 16 20 -8 c11 -4 46 -21 78 -36z m-4922
-11 c-1 -15 -24 -12 -29 3 -3 9 2 13 12 10 10 -1 17 -7 17 -13z m3709 -20 c10
-12 7 -20 -20 -45 -18 -16 -41 -30 -53 -30 -26 0 -57 28 -57 52 0 21 32 38 38
20 5 -17 27 -15 42 3 16 19 34 19 50 0z m-188 -43 c-7 -2 -9 -8 -6 -13 3 -6 2
-15 -3 -22 -5 -7 -10 -23 -11 -36 -1 -22 0 -22 13 -5 8 11 15 14 15 8 0 -15
-35 -46 -43 -37 -4 3 -7 0 -7 -9 0 -8 -10 -23 -22 -34 -23 -19 -23 -19 -5 2 9
11 17 30 17 43 0 12 6 24 14 27 11 4 12 13 6 36 -10 34 5 59 29 50 11 -4 11
-7 3 -10z m-4317 -21 c16 -26 -108 -72 -131 -48 -9 9 15 37 41 47 28 12 83 12
90 1z m4345 -26 c0 -6 -9 -11 -20 -11 -19 0 -25 7 -15 18 9 9 35 5 35 -7z
m-3777 -20 c1 -5 -13 -11 -30 -13 -31 -3 -42 6 -26 22 10 10 53 3 56 -9z m450
-42 c13 -8 7 -31 -10 -37 -9 -4 -43 -4 -75 0 -47 5 -58 10 -56 23 5 25 103 35
141 14z m-543 -173 c0 -5 -9 -10 -20 -10 -11 0 -20 5 -20 10 0 6 9 10 20 10
11 0 20 -4 20 -10z m5735 -15 c0 -26 -59 -35 -69 -10 -9 26 3 36 37 33 24 -2
32 -8 32 -23z m-5768 -66 c48 -23 48 -44 -1 -36 -17 2 -39 1 -48 -4 -19 -10
-48 -2 -48 14 0 14 30 47 43 47 6 0 30 -9 54 -21z m223 -80 c-19 -16 -54 -41
-78 -55 -40 -25 -43 -25 -68 -9 -37 24 -25 40 30 40 36 0 52 5 65 21 16 21 71
45 81 37 3 -3 -11 -18 -30 -34z m-352 -46 c-4 -20 -27 -27 -47 -14 -19 12 -4
31 25 31 19 0 25 -5 22 -17z"/>
<path d="M7247 2512 c-23 -25 -21 -32 6 -32 25 0 67 26 67 41 0 16 -56 10 -73
-9z"/>
<path d="M7690 654 c0 -8 5 -12 10 -9 6 4 8 11 5 16 -9 14 -15 11 -15 -7z"/>
<path d="M7700 608 c0 -12 3 -18 7 -14 11 10 12 36 2 36 -5 0 -9 -10 -9 -22z"/>
<path d="M3017 3811 c-12 -21 -14 -32 -6 -37 14 -8 29 14 29 44 0 29 -2 28
-23 -7z"/>
<path d="M7595 3620 c-10 -11 -13 -20 -7 -20 7 0 12 4 12 9 0 5 7 8 16 7 9 0
19 5 21 12 7 19 -22 14 -42 -8z"/>
<path d="M7344 3588 c-3 -4 4 -8 15 -8 12 0 21 4 21 8 0 5 -7 9 -15 9 -9 0
-18 -4 -21 -9z"/>
<path d="M2982 3511 c-7 -46 -11 -86 -8 -88 3 -3 17 2 31 11 19 12 25 25 25
51 0 19 -4 35 -8 35 -5 0 -13 17 -18 38 -9 36 -9 35 -22 -47z"/>
<path d="M7296 3571 c-4 -5 3 -7 14 -4 23 6 26 13 6 13 -8 0 -17 -4 -20 -9z"/>
<path d="M7310 3515 c-21 -12 -23 -15 -8 -20 21 -9 49 7 40 22 -5 8 -14 8 -32
-2z"/>
<path d="M6573 3513 c-7 -2 -13 -13 -13 -23 0 -13 5 -17 19 -13 12 3 19 13 18
24 -1 20 -4 21 -24 12z"/>
<path d="M6615 3500 c-3 -5 1 -10 9 -10 9 0 16 5 16 10 0 6 -4 10 -9 10 -6 0
-13 -4 -16 -10z"/>
<path d="M3091 3454 c0 -11 3 -14 6 -6 3 7 2 16 -1 19 -3 4 -6 -2 -5 -13z"/>
<path d="M3031 3424 c0 -11 3 -14 6 -6 3 7 2 16 -1 19 -3 4 -6 -2 -5 -13z"/>
<path d="M5235 3420 c3 -5 8 -10 11 -10 2 0 4 5 4 10 0 6 -5 10 -11 10 -5 0
-7 -4 -4 -10z"/>
<path d="M2983 3413 c-7 -3 -13 -12 -13 -21 0 -15 2 -15 17 1 18 18 16 27 -4
20z"/>
<path d="M3110 3393 c0 -6 8 -21 18 -33 15 -18 19 -20 19 -7 0 9 -9 24 -19 34
-10 9 -18 11 -18 6z"/>
<path d="M5300 3361 c0 -6 4 -13 10 -16 6 -3 7 1 4 9 -7 18 -14 21 -14 7z"/>
<path d="M3075 3340 c10 -11 20 -20 23 -20 3 0 -3 9 -13 20 -10 11 -20 20 -23
20 -3 0 3 -9 13 -20z"/>
<path d="M2915 3324 c-29 -24 -29 -25 -5 -18 29 7 50 23 50 35 0 15 -14 10
-45 -17z"/>
<path d="M5935 3320 c-3 -5 -1 -10 4 -10 6 0 11 5 11 10 0 6 -2 10 -4 10 -3 0
-8 -4 -11 -10z"/>
<path d="M3096 3285 c-8 -9 -17 -15 -18 -13 -5 4 -41 -25 -57 -45 -12 -15 -7
-14 29 5 24 13 50 33 58 46 17 25 11 29 -12 7z"/>
<path d="M5848 3293 c7 -3 16 -2 19 1 4 3 -2 6 -13 5 -11 0 -14 -3 -6 -6z"/>
<path d="M2790 3255 c-41 -42 -28 -46 20 -7 19 16 29 31 23 35 -5 3 -25 -9
-43 -28z"/>
<path d="M7178 3229 c-32 -18 -19 -29 32 -29 51 0 60 6 38 28 -15 15 -47 15
-70 1z"/>
<path d="M3040 3199 c-71 -43 -122 -92 -141 -136 -10 -25 -19 -49 -19 -55 0
-29 150 113 179 170 12 23 20 42 19 42 -2 0 -19 -10 -38 -21z"/>
<path d="M6795 3100 c-11 -17 5 -32 21 -19 7 6 11 15 8 20 -7 12 -21 11 -29
-1z"/>
<path d="M2866 3083 c-6 -14 -5 -15 5 -6 7 7 10 15 7 18 -3 3 -9 -2 -12 -12z"/>
<path d="M2826 3011 c-18 -35 -19 -41 -7 -41 10 0 34 61 27 68 -3 2 -12 -10
-20 -27z"/>
<path d="M6569 3002 c-15 -15 -41 -39 -59 -54 -27 -23 -30 -30 -20 -43 17 -20
39 -19 96 6 42 19 52 20 82 9 28 -10 36 -9 51 4 15 14 22 14 65 1 27 -8 55
-15 63 -15 24 0 13 19 -21 35 -27 13 -44 14 -96 6 -72 -12 -80 -9 -80 24 0 25
-24 55 -43 55 -7 -1 -24 -13 -38 -28z"/>
<path d="M3060 2980 c-6 -11 -8 -20 -6 -20 3 0 10 9 16 20 6 11 8 20 6 20 -3
0 -10 -9 -16 -20z"/>
<path d="M2980 2935 l-55 -55 35 6 c42 8 48 13 53 41 2 12 11 31 22 43 10 11
14 20 9 20 -5 0 -34 -25 -64 -55z"/>
<path d="M3061 2937 c-1 -10 -5 -16 -9 -13 -5 3 -9 -2 -9 -10 0 -13 2 -13 15
0 8 8 12 20 9 28 -4 9 -6 7 -6 -5z"/>
<path d="M6385 2940 c3 -5 20 -10 36 -10 18 0 28 4 24 10 -3 6 -20 10 -36 10
-18 0 -28 -4 -24 -10z"/>
<path d="M3150 2930 c-9 -6 -10 -10 -3 -10 6 0 15 5 18 10 8 12 4 12 -15 0z"/>
<path d="M2797 2903 c-17 -61 -29 -154 -23 -177 5 -22 11 -26 29 -21 37 11
100 59 124 94 43 64 22 77 -63 41 -56 -24 -68 -16 -59 43 5 38 0 51 -8 20z"/>
<path d="M6325 2910 c-8 -14 3 -30 21 -30 8 0 14 9 14 20 0 21 -24 28 -35 10z"/>
<path d="M3071 2764 c0 -11 3 -14 6 -6 3 7 2 16 -1 19 -3 4 -6 -2 -5 -13z"/>
<path d="M5035 2769 c-4 -6 -5 -12 -2 -15 2 -3 7 2 10 11 7 17 1 20 -8 4z"/>
<path d="M3020 2669 c0 -5 5 -7 10 -4 6 3 10 8 10 11 0 2 -4 4 -10 4 -5 0 -10
-5 -10 -11z"/>
<path d="M3011 2604 c0 -11 3 -14 6 -6 3 7 2 16 -1 19 -3 4 -6 -2 -5 -13z"/>
<path d="M2990 2554 c0 -6 7 -19 16 -30 14 -18 14 -18 3 6 -14 31 -19 36 -19
24z"/>
<path d="M6253 2283 c-11 -27 10 -66 40 -74 20 -6 30 -4 34 7 3 8 12 14 19 14
8 0 17 7 20 15 8 20 -13 45 -32 38 -8 -3 -22 -2 -31 2 -32 14 -44 14 -50 -2z"/>
<path d="M2246 2251 c-3 -5 1 -11 9 -15 8 -3 15 -1 15 4 0 13 -18 22 -24 11z"/>
<path d="M6419 2224 c-12 -14 -11 -16 5 -13 11 2 21 10 24 17 5 17 -13 15 -29
-4z"/>
<path d="M6153 2208 c-11 -14 -23 -44 -22 -54 0 -4 -3 -10 -8 -13 -4 -3 -13
-15 -19 -25 -6 -11 -24 -24 -40 -29 -37 -13 -48 -29 -28 -43 11 -9 24 -9 48
-2 29 9 39 7 77 -16 68 -41 82 -54 76 -71 -4 -9 -19 -15 -41 -15 -54 0 -87
-18 -80 -45 4 -17 -3 -32 -25 -56 -28 -31 -32 -32 -44 -17 -7 9 -29 19 -50 23
-44 9 -55 33 -33 77 9 17 16 32 16 33 0 2 -15 2 -34 2 -19 -1 -32 -5 -30 -9 3
-4 -5 -8 -18 -8 -36 0 -68 -11 -62 -21 3 -5 -1 -9 -9 -9 -10 0 -14 -12 -13
-44 1 -48 -23 -86 -56 -86 -24 0 -23 -17 2 -25 40 -13 18 -48 -59 -95 -31 -20
-36 -60 -7 -60 12 0 30 -7 40 -15 28 -22 75 -18 122 9 45 26 96 37 137 29 35
-7 37 -40 2 -49 -14 -3 -25 -10 -25 -15 0 -6 42 -8 103 -5 56 3 110 5 119 5
16 1 68 42 68 54 0 3 -15 3 -33 0 -41 -6 -78 27 -57 52 19 23 46 18 68 -12
l20 -27 41 19 c48 21 67 40 51 50 -7 4 -8 11 -1 18 5 7 11 28 13 47 3 37 16
43 33 16 7 -11 6 -22 -3 -36 -22 -37 20 -80 59 -60 13 7 25 7 38 0 31 -16 167
14 216 48 40 28 103 61 159 82 l29 11 -34 29 c-19 16 -44 29 -56 30 -28 0 -37
14 -18 30 22 18 18 40 -7 40 -38 0 -52 14 -39 38 6 12 18 25 27 30 12 7 13 14
5 35 -13 33 -43 35 -71 7 -24 -24 -36 -25 -48 -4 -12 22 -35 8 -27 -16 6 -20
-27 -50 -57 -50 -20 0 -24 -15 -7 -25 23 -15 0 -27 -51 -29 -30 -2 -65 -6 -77
-10 -38 -14 -40 19 -3 60 40 46 29 59 -47 59 -62 0 -77 14 -38 35 28 15 33 30
10 30 -8 0 -22 11 -30 24 -12 17 -28 25 -62 29 -34 4 -54 12 -70 31 -25 30
-27 30 -40 14z m505 -287 c-2 -19 -10 -27 -27 -29 -41 -6 -57 43 -18 57 32 12
49 2 45 -28z m29 -57 c-3 -3 -12 -4 -19 -1 -8 3 -5 6 6 6 11 1 17 -2 13 -5z
m-123 -112 c2 -4 1 -14 -4 -22 -7 -11 -12 -12 -21 -3 -6 6 -8 16 -5 22 8 13
23 14 30 3z m-676 -55 c4 -36 -23 -47 -49 -20 -27 26 -15 55 20 51 20 -2 27
-9 29 -31z m121 4 c8 -14 7 -22 -4 -31 -19 -16 -45 -6 -45 18 0 36 33 45 49
13z"/>
<path d="M2160 2149 c0 -5 5 -7 10 -4 6 3 10 8 10 11 0 2 -4 4 -10 4 -5 0 -10
-5 -10 -11z"/>
<path d="M5953 2083 c9 -2 23 -2 30 0 6 3 -1 5 -18 5 -16 0 -22 -2 -12 -5z"/>
<path d="M6500 2039 c0 -5 5 -7 10 -4 6 3 10 8 10 11 0 2 -4 4 -10 4 -5 0 -10
-5 -10 -11z"/>
<path d="M5480 1799 c0 -5 5 -7 10 -4 6 3 10 8 10 11 0 2 -4 4 -10 4 -5 0 -10
-5 -10 -11z"/>
<path d="M18 1473 c7 -3 16 -2 19 1 4 3 -2 6 -13 5 -11 0 -14 -3 -6 -6z"/>
<path d="M2170 1379 c-7 -11 -10 -23 -7 -25 8 -8 38 8 48 27 8 16 6 19 -10 19
-11 0 -25 -9 -31 -21z"/>
<path d="M3115 1312 c-24 -5 -45 -21 -45 -33 0 -12 61 -11 80 1 13 8 13 11 0
23 -8 7 -24 12 -35 9z"/>
<path d="M87 1094 c-11 -11 3 -24 24 -24 12 0 19 5 17 13 -5 14 -31 21 -41 11z"/>
<path d="M2540 800 c0 -5 7 -7 15 -4 8 4 15 8 15 10 0 2 -7 4 -15 4 -8 0 -15
-4 -15 -10z"/>
<path d="M1919 532 c-12 -11 -18 -21 -13 -25 12 -7 74 19 74 33 0 16 -36 12
-61 -8z"/>
<path d="M1655 406 c-25 -9 -29 -16 -27 -39 3 -21 8 -27 20 -23 9 2 43 10 75
17 64 14 73 29 24 47 -39 14 -51 14 -92 -2z"/>
</g>
</svg>
